<?xml version="1.0" encoding="UTF-8"?>
<svg width="384px" height="109px" viewBox="0 0 384 109" version="1.1" xmlns="http://www.w3.org/2000/svg" xmlns:xlink="http://www.w3.org/1999/xlink">
    <title>squigglyGreen2</title>
    <g id="squigglyGreen2" stroke="none" stroke-width="1" fill="none" fill-rule="evenodd">
        <path d="M372.65371,99 C357.007067,99 348.749117,99.8051489 341.360424,100.476106 C333.971731,101.147064 327.017668,101.952213 312.674912,101.952213 C298.332155,101.952213 291.378092,101.281255 283.989399,100.476106 C276.166078,99.6709574 268.342756,99 252.261484,99 C236.614841,99 228.35689,99.8051489 220.968198,100.476106 C213.579505,101.147064 206.625442,101.952213 192.282686,101.952213 C177.939929,101.952213 170.985866,101.281255 163.597173,100.476106 C155.773852,99.6709574 147.95053,99 132.303887,99 C116.657244,99 108.399293,99.8051489 101.010601,100.476106 C93.6219081,101.147064 86.6678445,101.952213 72.3250883,101.952213 C57.9823322,101.952213 51.0282686,101.281255 43.639576,100.476106 C35.8162544,99.6709574 27.9929329,99 12.3462898,99 C9.7385159,99 8,99.5367659 8,100.341915 C8,101.147064 9.7385159,101.68383 12.3462898,101.68383 C26.6890459,101.68383 33.6431095,102.354787 41.0318021,103.159936 C48.8551237,103.965085 56.6784452,104.636042 72.3250883,104.636042 C87.9717314,104.636042 96.229682,103.830893 103.618375,103.159936 C111.007067,102.488979 117.961131,101.68383 132.303887,101.68383 C146.646643,101.68383 153.600707,102.354787 160.989399,103.159936 C168.812721,103.965085 176.636042,104.636042 192.282686,104.636042 C207.929329,104.636042 216.187279,103.830893 223.575972,103.159936 C230.964664,102.488979 237.918728,101.68383 252.261484,101.68383 C266.60424,101.68383 273.558304,102.354787 280.946996,103.159936 C288.770318,103.965085 296.59364,104.636042 312.240283,104.636042 C327.886926,104.636042 336.144876,103.830893 343.968198,103.159936 C351.35689,102.488979 358.310954,101.68383 372.65371,101.68383 C375.261484,101.68383 377,101.147064 377,100.341915 C377,99.5367659 375.261484,99 372.65371,99 Z" stroke="#2ECECE" stroke-width="4" fill="#4FC2C2" fill-rule="nonzero" transform="translate(192.500000, 101.818021) scale(1, -1) translate(-192.500000, -101.818021) "></path>
    </g>
</svg>